<svg width="14" height="6" viewBox="0 0 14 6" fill="none" xmlns="http://www.w3.org/2000/svg">
<path d="M12.8518 0.501473L12.424 0.166414C12.2893 0.0617758 12.1102 0.00412948 11.9188 0.00412948C11.7274 0.00412948 11.5481 0.0617758 11.4134 0.166414L6.5332 3.96231L1.64734 0.162202C1.51291 0.0575637 1.33357 0 1.14222 0C0.95088 0 0.771429 0.0575637 0.636893 0.162202L0.208971 0.495196C-0.0696569 0.711741 -0.0696569 1.06447 0.208971 1.28102L6.02617 5.82178C6.1606 5.92633 6.33973 6 6.53277 6H6.535C6.72645 6 6.90559 5.92625 7.04002 5.82178L12.8518 1.29332C12.9864 1.18877 13.0603 1.04523 13.0606 0.896407C13.0606 0.747502 12.9864 0.605946 12.8518 0.501473Z" fill="#C9C9C9"/>
</svg>
