<svg xmlns="http://www.w3.org/2000/svg" width="40" height="40" viewBox="0 0 40 40">
    <g fill="none" fill-rule="evenodd">
        <g>
            <g>
                <g>
                    <g>
                        <g>
                            <path d="M0 0H40V40H0z" transform="translate(-176 -1958) translate(0 1580) translate(151 64) translate(0 151) translate(25 163)"/>
                            <path fill="#C61519" fill-rule="nonzero" d="M27.172 16.289c-.563 0-1.093.14-1.558.386-.6-.898-1.623-1.491-2.781-1.491-.599 0-1.16.158-1.647.435-.609-.827-1.59-1.365-2.692-1.365-.347 0-.683.054-.998.152v-1.043h.279c1.688 0 3.061-1.373 3.061-3.062V3.062C20.836 1.374 19.463 0 17.775 0h-7.24C8.847 0 7.473 1.374 7.473 3.062v7.24c0 1.688 1.374 3.061 3.062 3.061h.279v7.26c-.182-.182-.385-.344-.609-.482-.72-.448-1.564-.603-2.391-.444-.89.036-1.69.424-2.208 1.078-.545.687-.734 1.608-.52 2.527l1.54 6.591c.879 5.5 5.169 9.613 5.351 9.786.218.206.506.321.806.321h13.18c.395 0 .763-.199.98-.528 2.334-3.551 3.568-7.674 3.569-11.923l.001-7.919c0-1.842-1.499-3.341-3.341-3.341zM13.275 37.656c-.944-1.004-3.728-4.248-4.34-8.169-.004-.029-.01-.057-.017-.086l-1.55-6.632c-.051-.221-.025-.412.074-.537.1-.125.269-.19.495-.212.114-.01.161-.024.267-.03.266-.017.538 0 .765.141.226.141.384.361.445.62l1.336 5.722c.112.477.51.835.996.896l.094.012c.333.041.669-.062.92-.285.253-.222.397-.542.397-.878V9.593c0-.55.448-.998.998-.998s.997.448.997.998v10.989c0 .647.525 1.172 1.172 1.172.647 0 1.172-.525 1.172-1.172v-2.986c0-.55.448-.998.998-.998s.997.448.997.998v3.12c0 .647.525 1.172 1.172 1.172.647 0 1.172-.525 1.172-1.172v-2.19c0-.55.448-.998.998-.998s.997.447.997.997v3.009c0 .647.525 1.172 1.172 1.172.647 0 1.172-.525 1.172-1.172V19.63c0-.55.448-.997.998-.997s.997.447.997.997v7.918c-.001 3.582-.984 7.063-2.85 10.108H13.275zM32.828 0c1.688 0 3.062 1.374 3.062 3.062v7.24c0 1.688-1.374 3.061-3.062 3.061h-7.24c-1.688 0-3.062-1.373-3.062-3.062V3.062C22.526 1.374 23.9 0 25.588 0zM17.775 2.344c.396 0 .718.322.718.718v7.24c0 .395-.322.718-.718.718h-.279V9.593c0-1.842-1.499-3.341-3.341-3.341-1.843 0-3.342 1.499-3.342 3.341v1.427h-.278c-.396 0-.718-.323-.718-.719V3.062c0-.396.322-.718.718-.718h7.24zm15.053 0h-7.24c-.396 0-.718.322-.718.718v7.24c0 .395.322.718.718.718h7.24c.396 0 .718-.323.718-.719V3.062c0-.396-.322-.718-.718-.718z" transform="translate(-176 -1958) translate(0 1580) translate(151 64) translate(0 151) translate(25 163)"/>
                        </g>
                    </g>
                </g>
            </g>
        </g>
    </g>
</svg>
