<svg xmlns="http://www.w3.org/2000/svg" width="20" height="21" viewBox="0 0 20 21">
    <defs>
        <filter id="9h5estezra">
            <feColorMatrix in="SourceGraphic" values="0 0 0 0 0.129412 0 0 0 0 0.250980 0 0 0 0 0.600000 0 0 0 1.000000 0"/>
        </filter>
    </defs>
    <g fill="none" fill-rule="evenodd">
        <g>
            <g>
                <g filter="url(#9h5estezra)" transform="translate(-1099 -1366) translate(0 899) translate(832 457)">
                    <g>
                        <g fill="#214099">
                            <path d="M9.412 3.92c-.324.325-.324.852 0 1.176l4.063 4.07H4.167c-.46 0-.834.374-.834.834 0 .46.373.833.834.833h9.308l-4.063 4.07c-.324.325-.324.852 0 1.176.325.325.851.325 1.175 0L16.668 10l-6.08-6.08c-.324-.324-.85-.324-1.175 0z" transform="translate(170 2) translate(97 8)"/>
                        </g>
                    </g>
                </g>
            </g>
        </g>
    </g>
</svg>
