<svg xmlns="http://www.w3.org/2000/svg" xmlns:xlink="http://www.w3.org/1999/xlink" width="24" height="24" viewBox="0 0 24 24">
    <defs>
        <path id="2oddc3ezta" d="M18.295 5.705c-.39-.39-1.02-.39-1.41 0L12 10.59 7.115 5.705c-.39-.39-1.02-.39-1.41 0-.39.39-.39 1.02 0 1.41L10.59 12l-4.885 4.885c-.39.39-.39 1.02 0 1.41.39.39 1.02.39 1.41 0L12 13.41l4.885 4.885c.39.39 1.02.39 1.41 0 .39-.39.39-1.02 0-1.41L13.41 12l4.885-4.885c.39-.39.39-1.02 0-1.41z"/>
    </defs>
    <g fill="none" fill-rule="evenodd">
        <g>
            <mask id="katcc77c5b" fill="#fff">
                <use xlink:href="#2oddc3ezta"/>
            </mask>
            <use fill="#C2D1D9" xlink:href="#2oddc3ezta"/>
            <g fill="#C2D1D9" mask="url(#katcc77c5b)">
                <g>
                    <path d="M0 0H24V24H0z"/>
                </g>
            </g>
        </g>
    </g>
</svg>
