<svg xmlns="http://www.w3.org/2000/svg" width="24" height="24" viewBox="0 0 24 24">
    <g fill="none" fill-rule="evenodd">
        <g fill="#505D68">
            <path d="M12 2c2.652 0 5.196 1.054 7.071 2.929C20.946 6.804 22 9.348 22 12c0 5.523-4.477 10-10 10S2 17.523 2 12 6.477 2 12 2zm3.628 5.972c-.356-.046-.71.102-.928.388l-3.78 5-1.63-2.08c-.22-.282-.573-.426-.928-.377-.354.05-.655.284-.79.615-.134.332-.082.71.138.992l2.44 3.11c.19.241.482.382.79.38.31 0 .601-.145.79-.39l4.57-6v-.03c.218-.286.267-.666.128-.998-.138-.331-.443-.564-.8-.61z"/>
        </g>
    </g>
</svg>
