<svg xmlns="http://www.w3.org/2000/svg" width="32" height="32" viewBox="0 0 32 32">
    <defs>
        <filter id="xr8altsgqa">
            <feColorMatrix in="SourceGraphic" values="0 0 0 0 1.000000 0 0 0 0 1.000000 0 0 0 0 1.000000 0 0 0 1.000000 0"/>
        </filter>
    </defs>
    <g fill="none" fill-rule="evenodd">
        <g>
            <g>
                <g>
                    <g filter="url(#xr8altsgqa)" transform="translate(-150 -355) translate(0 60) translate(150 115) translate(0 180)">
                        <g fill="#FFF" fill-rule="nonzero">
                            <path d="M16 29.333c7.364 0 13.333-5.97 13.333-13.333 0-7.364-5.97-13.333-13.333-13.333C8.636 2.667 2.667 8.637 2.667 16c0 7.364 5.97 13.333 13.333 13.333zM16 0c8.837 0 16 7.163 16 16s-7.163 16-16 16S0 24.837 0 16 7.163 0 16 0zm7.036 10.404l-.004.004-10.245 10.365-4.856-4.855c-.39-.39-1.02-.39-1.411-.003l-.475.471c-.391.39-.394 1.023-.005 1.414l6.747 6.747L24.92 12.279c.387-.39.385-1.02-.004-1.41l-.465-.465c-.39-.39-1.024-.39-1.415 0z"/>
                        </g>
                    </g>
                </g>
            </g>
        </g>
    </g>
</svg>
