<svg xmlns="http://www.w3.org/2000/svg" width="70" height="70" viewBox="0 0 70 70">
    <g fill="none" fill-rule="evenodd">
        <g>
            <g>
                <g>
                    <g transform="translate(-538 -3905) translate(0 3745) translate(442 160) translate(96)">
                        <circle cx="35" cy="35" r="35" fill="#FFF"/>
                        <circle cx="35" cy="35" r="27" stroke="#C61519" stroke-width="2"/>
                        <g fill="#C61519" fill-rule="nonzero">
                            <path d="M11.688 0c4.147 0 7.521 3.374 7.521 7.522v1.927h3.183c.518 0 .937.42.937.937v20.676c0 .518-.42.938-.937.938H.983c-.518 0-.937-.42-.937-.938V10.387c0-.517.42-.937.937-.937h3.183V7.522C4.166 3.374 7.54 0 11.687 0zm9.766 11.324H1.921v1.828h2.724c.518 0 .938.42.938.937v13.27c0 .518-.42.938-.938.938H1.921v1.828h19.533V11.324zm-9.68 2.065c.517 0 .937.42.937.937v.4c.72.157 1.224.486 1.424.636.415.31.5.898.19 1.312-.31.415-.898.5-1.313.19-.222-.167-.836-.524-1.73-.255-.437.132-.659.531-.721.862-.06.322.014.63.186.765.536.42 1.49.788 2.353 1.093 1.534.543 2.387 1.963 2.123 3.535-.13.774-.52 1.491-1.096 2.021-.41.377-.89.64-1.417.784v.538c0 .518-.42.937-.937.937-.518 0-.938-.42-.938-.937v-.449c-.69-.072-1.253-.273-2.018-.774-.433-.284-.554-.865-.27-1.298.282-.433.864-.555 1.297-.271.71.465.999.51 1.923.504.947-.006 1.497-.712 1.607-1.366.054-.323.075-1.111-.899-1.456-1.445-.51-2.281-.912-2.885-1.386-.73-.573-1.065-1.564-.872-2.587.21-1.112.985-1.997 2.023-2.31.031-.01.063-.018.095-.027v-.46c0-.518.42-.938.937-.938zM3.707 23.874H1.92v2.548h1.787v-2.548zm0-4.424H1.92V22h1.787V19.45zm0-4.423H1.92v2.548h1.787v-2.548zm7.98-13.152c-3.114 0-5.647 2.533-5.647 5.647v1.927h1.77V7.41c0-2.137 1.74-3.876 3.877-3.876 2.137 0 3.875 1.74 3.875 3.876V9.45h1.771V7.522c0-3.114-2.533-5.647-5.646-5.647zm0 3.535c-1.104 0-2.001.898-2.001 2.001V9.45h4.001V7.41c0-1.103-.897-2-2-2z" transform="translate(23 18)"/>
                        </g>
                    </g>
                </g>
            </g>
        </g>
    </g>
</svg>
