<svg xmlns="http://www.w3.org/2000/svg" width="70" height="70" viewBox="0 0 70 70">
    <g fill="none" fill-rule="evenodd">
        <g>
            <g transform="translate(-67) translate(67)">
                <circle cx="35" cy="35" r="35" fill="#FFF"/>
                <circle cx="35" cy="35" r="27" stroke="#C61519" stroke-width="2"/>
                <g fill="#C61519" fill-rule="nonzero" stroke="#C61519" stroke-width=".5">
                    <path d="M16.667 0c4.181 0 7.332.557 8.432 1.492.832.708 3.136 5.858 4.033 7.906l.055.127C31.131 10.63 32 12.433 32 15.333c0 2.888-.661 5.4-.69 5.506-.077.292-.34.494-.643.494h0v2c0 1.103-.898 2-2 2h0-4c-1.103 0-2-.897-2-2h0l-.001-.921-.369.184c-.061.031-.127.052-.195.063l-.102.008H10c-.103 0-.205-.024-.299-.07h0l-.368-.185v.921c0 1.053-.817 1.918-1.85 1.995l-.15.005h-4c-1.102 0-2-.897-2-2h0v-2c-.302 0-.566-.202-.644-.494C.661 20.733 0 18.22 0 15.333c0-2.9.869-4.702 2.812-5.807.85-1.949 3.239-7.312 4.09-8.035C8.001.557 11.151 0 15.332 0h0zM7.176 21.333h-4.51v2c0 .335.249.612.57.66l.097.007h4C7.7 24 8 23.701 8 23.333h0l-.001-1.588-.823-.412zm22.157 0h-4.509l-.825.412v1.588c0 .335.249.612.57.66l.098.007h4c.366 0 .666-.299.666-.667h0v-2zM16 9.333c-6.604 0-10.761.423-12.359 1.258-1.138.595-1.808 1.44-2.112 2.742h2.034c.89 0 1.726.347 2.357.976h0l3.219 3.219c.19.19.248.477.144.727-.104.249-.347.412-.616.412h0-7.055c.088.554.18 1.013.25 1.333h5.471c.103 0 .206.024.299.07h0l2.525 1.263h11.686l2.526-1.262c.092-.047.195-.071.299-.071h5.472c.07-.32.16-.779.248-1.333h-7.055c-.269 0-.513-.163-.616-.412-.102-.25-.045-.536.144-.727h0l3.22-3.219c.63-.629 1.466-.976 2.356-.976h2.034c-.304-1.302-.974-2.147-2.112-2.742C26.76 9.756 22.604 9.333 16 9.333zm7.333 4c.259 0 .494.15.604.384.11.234.075.511-.092.71h0l-3.333 4c-.127.152-.315.24-.512.24h0-8c-.197 0-.385-.088-.512-.24h0l-3.333-4c-.167-.199-.202-.476-.092-.71.11-.234.345-.384.604-.384h0zm7.316 1.333h-2.212c-.526 0-1.041.214-1.414.586h0l-2.08 2.081 5.618.001c.063-.624.106-1.303.106-2 0-.233-.006-.455-.018-.668zm-27.086 0H1.35c-.012.213-.018.435-.018.667 0 .698.043 1.377.106 2.001h5.618l-2.081-2.082c-.372-.372-.888-.585-1.413-.585h0zm18.346 0H10.09l2.223 2.667h7.375l2.222-2.666zM16.667 1.334h-1.334c-4.882 0-7.054.74-7.568 1.175-.41.382-1.843 3.316-3.196 6.344C6.807 8.273 10.522 8 16 8h.485c5.213.017 8.775.29 10.948.851-1.355-3.029-2.79-5.961-3.201-6.346-.51-.433-2.683-1.172-7.565-1.172h0z" transform="translate(19 22)"/>
                </g>
            </g>
        </g>
    </g>
</svg>
