<svg xmlns="http://www.w3.org/2000/svg" xmlns:xlink="http://www.w3.org/1999/xlink" width="24" height="24" viewBox="0 0 24 24">
    <defs>
        <path id="rqg7uy3soa" d="M14.11 0v4.922c0 1.163.946 2.11 2.109 2.11h4.922V21.89c0 1.163-.947 2.109-2.11 2.109H4.97c-1.163 0-2.11-.946-2.11-2.11V2.11C2.86.945 3.806 0 4.97 0h9.14zm-.704 18.328H7.781c-.388 0-.703.315-.703.703 0 .389.315.703.703.703h5.625c.389 0 .703-.314.703-.703 0-.388-.314-.703-.703-.703zm2.813-2.812H7.78c-.388 0-.703.314-.703.703 0 .388.315.703.703.703h8.438c.388 0 .703-.315.703-.703 0-.389-.315-.703-.703-.703zm0-2.813H7.78c-.388 0-.703.315-.703.703 0 .389.315.703.703.703h8.438c.388 0 .703-.314.703-.703 0-.388-.315-.703-.703-.703zm0-2.812H7.78c-.388 0-.703.314-.703.703 0 .388.315.703.703.703h8.438c.388 0 .703-.315.703-.703 0-.389-.315-.703-.703-.703zM15.516.412l5.213 5.213h-4.51c-.388 0-.703-.315-.703-.703V.412z"/>
    </defs>
    <g fill="none" fill-rule="evenodd">
        <g>
            <mask id="52cva5e37b" fill="#fff">
                <use xlink:href="#rqg7uy3soa"/>
            </mask>
            <use fill="#000" fill-rule="nonzero" xlink:href="#rqg7uy3soa"/>
            <g mask="url(#52cva5e37b)">
                <g>
                    <path fill="#C2D1D9" d="M0 0H24V24H0z" transform="translate(-1)"/>
                </g>
            </g>
        </g>
    </g>
</svg>
