<svg xmlns="http://www.w3.org/2000/svg" width="40" height="40" viewBox="0 0 40 40">
    <g fill="none" fill-rule="evenodd">
        <g>
            <g>
                <g>
                    <g>
                        <g>
                            <path d="M0 0H40V40H0z" transform="translate(-473 -1958) translate(0 1580) translate(151 64) translate(292 151) translate(30 163)"/>
                            <path fill="#C61519" fill-rule="nonzero" d="M20 0C8.945 0 0 8.946 0 20c0 11.055 8.946 20 20 20 11.055 0 20-8.946 20-20C40 8.945 31.054 0 20 0zm0 2.667c9.558 0 17.333 7.775 17.333 17.333 0 9.558-7.775 17.333-17.333 17.333-9.558 0-17.333-7.775-17.333-17.333 0-9.558 7.775-17.333 17.333-17.333zm8.701 9.984l-11.87 11.87-5.532-5.533c-.521-.52-1.365-.52-1.886 0-.52.52-.52 1.365 0 1.886l6.476 6.475c.52.52 1.365.52 1.885 0l12.813-12.813c.52-.52.52-1.365 0-1.885-.52-.521-1.365-.521-1.886 0z" transform="translate(-473 -1958) translate(0 1580) translate(151 64) translate(292 151) translate(30 163)"/>
                        </g>
                    </g>
                </g>
            </g>
        </g>
    </g>
</svg>
