<svg width="24" height="24" viewBox="0 0 24 24" fill="none" xmlns="http://www.w3.org/2000/svg">
    <mask id="arrle" mask-type="alpha" maskUnits="userSpaceOnUse" x="8" y="6" width="8" height="12">
        <path d="M15.2954 17.2952C15.6854 16.9051 15.6854 16.2751 15.2954 15.8852L11.4203 12.0002L15.2962 8.11615C15.6852 7.72614 15.6842 7.09414 15.2951 6.70515C14.9051 6.31516 14.2751 6.31518 13.8851 6.70519L8.59026 12.0003L13.8854 17.2952C14.2754 17.6852 14.9054 17.6852 15.2954 17.2952Z"
              fill="white"/>
    </mask>
    <g mask="url(#arrle)">
        <path d="M9.29542 17.2953C8.90541 16.9053 8.9054 16.2753 9.29539 15.8853L13.1703 12.0002L9.29422 8.11626C8.90521 7.72627 8.90619 7.09427 9.29518 6.70526C9.68517 6.31525 10.3152 6.31524 10.7052 6.70523L16.0003 12.0001L10.7054 17.2952C10.3154 17.6852 9.68543 17.6853 9.29542 17.2953Z"
              fill="#C2D1D9"/>
        <path fill-rule="evenodd" clip-rule="evenodd"
              d="M24.0005 24L0.000488281 24.0005L-5.6217e-05 0.000544498L23.9999 0L24.0005 24Z" fill="#214099"/>
    </g>
</svg>
