<svg xmlns="http://www.w3.org/2000/svg" width="32" height="32" viewBox="0 0 32 32">
    <g fill="none" fill-rule="evenodd">
        <g fill="#214099" fill-rule="nonzero">
            <g>
                <path d="M28 1c1.654 0 3 1.346 3 3v24c0 1.654-1.346 3-3 3H4c-1.654 0-3-1.346-3-3V4c0-1.654 1.346-3 3-3h24m0-1H4C1.8 0 0 1.8 0 4v24c0 2.2 1.8 4 4 4h24c2.2 0 4-1.8 4-4V4c0-2.2-1.8-4-4-4z" transform="translate(-150 -381) translate(150 381)"/>
                <path d="M24.986 12.991v6.859c0 1.465-1.19 2.654-2.654 2.654H9.654C8.19 22.504 7 21.315 7 19.85V12.99l8.452 5.16c.17.106.36.149.53.149.17 0 .361-.043.531-.149l8.473-5.16zm-2.654-3.737c1.253 0 2.314.892 2.57 2.08l-8.898 5.437-8.92-5.436c.256-1.19 1.318-2.081 2.57-2.081z" transform="translate(-150 -381) translate(150 381)"/>
            </g>
        </g>
    </g>
</svg>
