<svg xmlns="http://www.w3.org/2000/svg" xmlns:xlink="http://www.w3.org/1999/xlink" width="24" height="24" viewBox="0 0 24 24">
    <defs>
        <path id="zvobg7ltra" d="M20 3c1.652 0 3 1.348 3 3v12c0 1.652-1.348 3-3 3H4c-1.652 0-3-1.348-3-3l.01-12c0-1.653 1.338-3 2.99-3h16zm0 2H4c-.544 0-.99.449-.99 1L3 18c0 .548.452 1 1 1h16c.548 0 1-.452 1-1V6c0-.548-.452-1-1-1zm-2.337 2.144c.473-.285 1.088-.133 1.373.34.286.475.135 1.088-.336 1.374l-6.69 4.059-.006.011L5.484 9c-.473-.285-.625-.9-.34-1.372.285-.474.9-.626 1.372-.34l5.454 3.285z"/>
    </defs>
    <g fill="none" fill-rule="evenodd">
        <g>
            <mask id="emuyv157zb" fill="#fff">
                <use xlink:href="#zvobg7ltra"/>
            </mask>
            <use fill="#979797" fill-rule="nonzero" xlink:href="#zvobg7ltra"/>
            <g fill="#C2D1D9" mask="url(#emuyv157zb)">
                <g>
                    <path d="M0 0H24V24H0z"/>
                </g>
            </g>
        </g>
    </g>
</svg>
