<svg xmlns="http://www.w3.org/2000/svg" width="70" height="70" viewBox="0 0 70 70">
    <g fill="none" fill-rule="evenodd">
        <g>
            <g>
                <g>
                    <g transform="translate(-1124 -3905) translate(0 3745) translate(1028 160) translate(96)">
                        <circle cx="35" cy="35" r="35" fill="#FFF"/>
                        <circle cx="35" cy="35" r="27" stroke="#C61519" stroke-width="2"/>
                        <g fill="#C61519" fill-rule="nonzero" stroke="#C61519" stroke-width=".4">
                            <path d="M2.167 0C3.345 0 4.3.955 4.3 2.133c-.002.18-.028.36-.076.534h0L6.617 4c.514.285.888.768 1.037 1.337h0L7.92 6.4h1.547c.616-1.303 1.927-2.133 3.368-2.133 1.44 0 2.752.83 3.368 2.133h1.547l.261-1.057c.148-.572.524-1.06 1.041-1.347h0l2.39-1.33c-.047-.173-.073-.352-.075-.533-.003-1.02.719-1.898 1.72-2.093 1-.196 2 .346 2.381 1.292.382.946.039 2.03-.818 2.583-.856.554-1.985.422-2.69-.313h0L19.566 4.93c-.26.145-.448.39-.522.677h0l-.2.807c.324.045.61.237.773.52h3.349c.883 0 1.6.716 1.6 1.6 0 .883-.717 1.6-1.6 1.6h0-3.349c-.189.328-.539.532-.918.533h0-.249c1.949 2.202 2.99 5.06 2.916 8 0 5.794-1.019 7.106-1.224 7.31-.018.018-.037.034-.057.05-.069.051-1.672 1.224-5.12 1.592h0v2.248c0 1.178-.955 2.133-2.133 2.133s-2.134-.955-2.134-2.133h0v-2.248c-3.446-.366-5.05-1.54-5.12-1.593-.02-.015-.038-.031-.056-.049-.204-.204-1.223-1.516-1.223-7.31-.075-2.94.967-5.798 2.915-8h0-.248c-.38-.001-.73-.205-.919-.534h0H2.7c-.884 0-1.6-.716-1.6-1.6 0-.883.716-1.6 1.6-1.6h3.348c.164-.282.45-.474.774-.519h0L6.619 5.6c-.074-.284-.26-.525-.517-.668h0l-2.395-1.33c-.67.706-1.732.869-2.583.396C.273 3.525-.15 2.537.096 1.595.34.653 1.193-.003 2.166 0zM13.9 25.556c-.33.025-.68.044-1.067.044-.386 0-.736-.019-1.066-.044h0v4.31c0 .59.477 1.067 1.066 1.067.59 0 1.067-.477 1.067-1.066h0zm-3.675-14.89H8.75c-.641.521-3.382 3.04-3.382 8 0 4.896.76 6.317.906 6.54.28.183 1.7 1.03 4.427 1.34h0v-1.12c-.636-.09-1.256-.267-1.844-.525-.178-.092-.29-.275-.29-.474h0v-4.48c0-.14.054-.274.152-.374.994-.873 2.26-1.375 3.582-1.42h0v-4.286c0-.295.239-.534.533-.534.295 0 .534.24.534.534h0v4.286c1.322.045 2.588.547 3.582 1.42.097.1.151.234.151.374h0v4.48c0 .2-.11.384-.29.476-.587.258-1.208.435-1.843.525h0v1.12c2.748-.312 4.169-1.17 4.435-1.345.033-.05.125-.208.238-.532l.053-.162c.265-.84.607-2.561.607-5.842 0-4.96-2.74-7.478-3.382-8h0-1.477c-1.447 1.422-3.768 1.422-5.216 0h0zm2.873 8.532l-.265.002c-1.147-.04-2.275.308-3.2.988h0v3.88c1.034.332 2.115.49 3.2.465 1.086.025 2.167-.133 3.2-.465h0v-3.88c-.925-.68-2.052-1.028-3.2-.988zm-6.104-3.9c.093-.28.395-.43.674-.337.28.092.43.394.338.674-.308.982-.478 2.002-.506 3.032 0 .294-.239.533-.533.533-.295 0-.534-.239-.534-.533.027-1.144.215-2.278.56-3.369zm11.004-.338c.28-.093.582.058.675.338.345 1.09.534 2.225.56 3.369 0 .294-.238.533-.533.533-.295 0-.533-.239-.533-.533-.029-1.03-.2-2.05-.508-3.032-.092-.28.059-.582.339-.675zm-5.165-9.627c-1.472.002-2.665 1.195-2.666 2.667 0 1.473 1.194 2.667 2.666 2.667 1.473 0 2.667-1.194 2.667-2.667 0-1.473-1.194-2.667-2.667-2.667zM18.7 7.467h-2.176c.027.176.041.354.043.533 0 .554-.126 1.1-.366 1.6H18.7V7.467zm-9.557 0H6.967V9.6h2.498C9.225 9.1 9.1 8.554 9.1 8c.001-.179.016-.357.043-.533h0zM5.9 8H2.7c-.295 0-.533.239-.533.533 0 .295.238.534.533.534h3.2V8zm17.067 0h-3.2v1.067h3.2c.294 0 .533-.24.533-.534 0-.294-.239-.533-.533-.533h0zm-10.134-.533c.295 0 .534.238.534.533 0 .295-.24.533-.534.533-.294 0-.533-.238-.533-.533 0-.295.239-.533.533-.533zm10.667-6.4c-.59 0-1.067.477-1.067 1.066 0 .59.478 1.067 1.067 1.067.59 0 1.067-.478 1.067-1.067s-.478-1.066-1.067-1.066zm-21.333 0c-.59 0-1.067.477-1.067 1.066 0 .59.478 1.067 1.067 1.067.283 0 .554-.112.754-.312.2-.2.312-.472.312-.755 0-.589-.477-1.066-1.066-1.066z" transform="translate(22 19)"/>
                        </g>
                    </g>
                </g>
            </g>
        </g>
    </g>
</svg>
