<svg xmlns="http://www.w3.org/2000/svg" width="16" height="17" viewBox="0 0 16 17">
    <defs>
        <filter id="vol764knia">
            <feColorMatrix in="SourceGraphic" values="0 0 0 0 0.129412 0 0 0 0 0.250980 0 0 0 0 0.600000 0 0 0 1.000000 0"/>
        </filter>
    </defs>
    <g fill="none" fill-rule="evenodd">
        <g>
            <g>
                <g filter="url(#vol764knia)" transform="translate(-931 -22) translate(931 21)">
                    <g>
                        <path fill="#214099" d="M4.413 7.193c.96 1.887 2.507 3.427 4.394 4.394l1.466-1.467c.18-.18.447-.24.68-.16.747.247 1.554.38 2.38.38.367 0 .667.3.667.667v2.326c0 .367-.3.667-.667.667C7.073 14 2 8.927 2 2.667 2 2.3 2.3 2 2.667 2H5c.367 0 .667.3.667.667 0 .833.133 1.633.38 2.38.073.233.02.493-.167.68L4.413 7.193z" transform="translate(0 1)"/>
                    </g>
                </g>
            </g>
        </g>
    </g>
</svg>
