<svg xmlns="http://www.w3.org/2000/svg" width="24" height="24" viewBox="0 0 24 24">
    <g fill="none" fill-rule="evenodd">
        <g fill="#505D68">
            <path d="M6.6 2c.26.008.517.041.77.1.245.036.486.097.72.18.326.112.572.384.65.72l1.37 5.93c.075.33-.023.677-.26.92-.13.15-.14.15-1.41.79.985 2.16 2.713 3.896 4.87 4.89.553-1.054.643-1.22.743-1.325l.037-.036.02-.019c.243-.237.59-.335.92-.26l6 1.37c.336.078.608.324.72.65.084.237.148.482.19.73.04.251.06.505.06.76 0 1.22-.485 2.39-1.347 3.253C19.79 21.515 18.62 22 17.4 22 8.9 21.989 2.011 15.1 2 6.6 2 4.06 4.06 2 6.6 2zM13 6c2.761 0 5 2.239 5 5 0 .552-.448 1-1 1s-1-.448-1-1c0-1.657-1.343-3-3-3-.552 0-1-.448-1-1s.448-1 1-1zm0-4c4.97 0 9 4.03 9 9 0 .552-.448 1-1 1s-1-.448-1-1c0-3.866-3.134-7-7-7-.552 0-1-.448-1-1s.448-1 1-1z"/>
        </g>
    </g>
</svg>
