<svg xmlns="http://www.w3.org/2000/svg" width="32" height="32" viewBox="0 0 32 32">
    <g fill="none" fill-rule="evenodd">
        <g fill="#214099" fill-rule="nonzero">
            <g>
                <path d="M28 1c1.654 0 3 1.346 3 3v24c0 1.654-1.346 3-3 3H4c-1.654 0-3-1.346-3-3V4c0-1.654 1.346-3 3-3h24m0-1H4C1.8 0 0 1.8 0 4v24c0 2.2 1.8 4 4 4h24c2.2 0 4-1.8 4-4V4c0-2.2-1.8-4-4-4z" transform="translate(-150 -287) translate(150 287)"/>
                <path d="M24.002 12.466c0 4.658-2.59 8.139-6.407 8.139-1.283 0-2.488-.693-2.901-1.481 0 0-.69 2.736-.835 3.264-.514 1.866-2.027 3.733-2.144 3.886-.082.106-.263.073-.282-.068-.033-.238-.418-2.592.036-4.513l1.527-6.471s-.379-.758-.379-1.879c0-1.76 1.02-3.074 2.29-3.074 1.08 0 1.601.81 1.601 1.782 0 1.086-.691 2.71-1.048 4.214-.298 1.26.632 2.288 1.874 2.288 2.25 0 3.765-2.89 3.765-6.314 0-2.602-1.752-4.551-4.941-4.551-3.601 0-5.846 2.686-5.846 5.687 0 1.035.306 1.765.784 2.329.219.26.25.364.17.662-.058.219-.187.744-.243.953-.079.301-.323.408-.594.297-1.659-.677-2.432-2.495-2.432-4.537 0-3.373 2.845-7.418 8.487-7.418 4.535.002 7.518 3.282 7.518 6.805z" transform="translate(-150 -287) translate(150 287)"/>
            </g>
        </g>
    </g>
</svg>
