<svg xmlns="http://www.w3.org/2000/svg" width="40" height="40" viewBox="0 0 40 40">
    <g fill="none" fill-rule="evenodd">
        <g>
            <g>
                <g>
                    <g>
                        <g>
                            <path d="M0 0H40V40H0z" transform="translate(-1057 -1958) translate(0 1580) translate(151 64) translate(876 151) translate(30 163)"/>
                            <path fill="#C61519" fill-rule="nonzero" d="M34.142 5.858C30.365 2.08 25.342 0 20 0 14.658 0 9.635 2.08 5.858 5.858 2.08 9.635 0 14.658 0 20c0 5.342 2.08 10.365 5.858 14.142C9.635 37.92 14.658 40 20 40c5.342 0 10.365-2.08 14.142-5.858C37.92 30.365 40 25.342 40 20c0-5.342-2.08-10.365-5.858-14.142zM20 2.344c9.736 0 17.656 7.92 17.656 17.656 0 9.736-7.92 17.656-17.656 17.656-9.736 0-17.656-7.92-17.656-17.656 0-9.736 7.92-17.656 17.656-17.656zm0 5.187c-.647 0-1.172.525-1.172 1.172v2.594h-.083c-2.723 0-4.938 2.215-4.938 4.937 0 2.723 2.215 4.938 4.938 4.938h2.51c1.43 0 2.594 1.163 2.594 2.594 0 1.43-1.164 2.593-2.594 2.593h-5.02c-.648 0-1.172.525-1.172 1.172 0 .647.524 1.172 1.171 1.172h2.594v2.594c0 .647.525 1.172 1.172 1.172.647 0 1.172-.525 1.172-1.172v-2.594h.083c2.723 0 4.938-2.215 4.938-4.937 0-2.723-2.215-4.938-4.938-4.938h-2.51c-1.43 0-2.594-1.163-2.594-2.594 0-1.43 1.164-2.593 2.594-2.593h5.02c.648 0 1.172-.525 1.172-1.172 0-.647-.524-1.172-1.171-1.172h-2.594V8.703c0-.647-.525-1.172-1.172-1.172z" transform="translate(-1057 -1958) translate(0 1580) translate(151 64) translate(876 151) translate(30 163)"/>
                        </g>
                    </g>
                </g>
            </g>
        </g>
    </g>
</svg>
