<svg xmlns="http://www.w3.org/2000/svg" width="70" height="70" viewBox="0 0 70 70">
    <g fill="none" fill-rule="evenodd">
        <g>
            <g>
                <g>
                    <g transform="translate(-831 -3905) translate(0 3745) translate(735 160) translate(96)">
                        <circle cx="35" cy="35" r="35" fill="#FFF"/>
                        <circle cx="35" cy="35" r="27" stroke="#C61519" stroke-width="2"/>
                        <g fill="#C61519" fill-rule="nonzero" stroke="#C61519" stroke-width=".6">
                            <path d="M29.296 21.808c-1.593-1.594-3.939-2.148-6.064-1.459L11.698 8.815c.689-2.125.135-4.47-1.459-6.064C8.561 1.072 6.047.547 3.836 1.414c-.17.066-.295.215-.333.394-.037.18.018.365.148.495l3.452 3.452-2.302 2.303-3.453-3.453c-.13-.13-.315-.185-.495-.147-.179.037-.327.162-.394.333-.866 2.21-.341 4.724 1.337 6.403 1.594 1.593 3.94 2.147 6.064 1.458l4.313 4.313-5.371 5.371-3.416 1.91c-.095.054-.172.134-.22.231l-1.536 3.07c-.104.21-.063.462.102.627l1.919 1.919c.104.104.243.159.384.159.082 0 .165-.019.242-.057l3.07-1.535c.098-.05.178-.126.231-.221l1.91-3.416 5.372-5.371 4.535 4.535c-.69 2.125-.135 4.47 1.458 6.064 1.142 1.141 2.669 1.75 4.224 1.75.732 0 1.471-.136 2.179-.413.17-.067.296-.215.333-.394.038-.18-.018-.366-.147-.495l-3.453-3.453 2.303-2.302 3.452 3.452c.13.13.316.185.495.148.18-.038.328-.163.394-.333.867-2.211.342-4.725-1.337-6.403zm-20.628 2.5c-.036.036-.066.076-.09.12l-1.866 3.335-2.57 1.286-1.366-1.366 1.285-2.57 3.336-1.866c.044-.024.084-.054.12-.09l5.424-5.424 1.15 1.151-5.423 5.424zm.804-20.79c1.373 1.374 1.803 3.43 1.094 5.24-.079.2-.031.429.121.582l12.02 12.02c.153.152.382.2.582.121 1.81-.709 3.866-.28 5.24 1.094 1.166 1.167 1.652 2.826 1.337 4.408l-3.19-3.19c-.212-.212-.556-.212-.768 0l-3.07 3.07c-.102.101-.16.24-.16.383 0 .144.058.282.16.384l3.19 3.19c-1.581.315-3.24-.17-4.407-1.337-1.374-1.373-1.803-3.43-1.095-5.24.08-.2.032-.428-.121-.58L8.385 11.641c-.104-.104-.243-.159-.384-.159-.067 0-.134.012-.198.037-1.809.71-3.866.28-5.24-1.094C1.398 9.26.912 7.6 1.227 6.018l3.19 3.191c.213.212.556.212.768 0l3.07-3.07c.212-.212.212-.556 0-.768l-3.19-3.19c1.582-.315 3.24.17 4.408 1.337zm14.73-2.69c1.343-1.165 3.456-1.092 4.71.162h0l1.923 1.923c1.253 1.254 1.331 3.365.173 4.707h0l-2.86 3.314c-.037.044-.081.08-.13.11h0l-5.56 3.358-.705 2.113c-.06.178-.207.313-.39.356-.041.01-.083.015-.125.015-.142 0-.28-.056-.384-.16h0l-5.756-5.756c-.133-.133-.188-.325-.145-.508.044-.183.179-.33.357-.39h0l2.112-.704 3.29-5.48c.03-.05.067-.093.11-.13h0zm3.942.93c-.86-.86-2.31-.91-3.232-.11h0l-3.314 2.873-3.348 5.577c-.067.111-.171.195-.294.236h0l-1.47.49 1.298 1.297s0 0 0 0l1.92 1.92h0L21 15.338l.49-1.47c.04-.122.124-.226.234-.292h0l5.658-3.416 2.803-3.25c.795-.92.741-2.369-.119-3.23h0z" transform="translate(19 19)"/>
                        </g>
                    </g>
                </g>
            </g>
        </g>
    </g>
</svg>
