<svg xmlns="http://www.w3.org/2000/svg" xmlns:xlink="http://www.w3.org/1999/xlink" width="24" height="24" viewBox="0 0 24 24">
    <defs>
        <path id="8b0g51zcia" d="M14.71 14l-.28-.27C15.41 12.59 16 11.11 16 9.5 16 5.91 13.09 3 9.5 3S3 5.91 3 9.5 5.91 16 9.5 16c1.61 0 3.09-.59 4.23-1.57l.27.28v.79l4.293 4.284c.39.39 1.023.39 1.413 0l.078-.078c.39-.39.39-1.022 0-1.413L15.5 14h-.79zM5 9.5C5 7.01 7.01 5 9.5 5S14 7.01 14 9.5 11.99 14 9.5 14 5 11.99 5 9.5z"/>
    </defs>
    <g fill="none" fill-rule="evenodd">
        <g>
            <mask id="k6blz6zcwb" fill="#fff">
                <use xlink:href="#8b0g51zcia"/>
            </mask>
            <use fill="#C2D1D9" xlink:href="#8b0g51zcia"/>
            <g fill="#C2D1D9" mask="url(#k6blz6zcwb)">
                <g>
                    <path d="M0 0H24V24H0z"/>
                </g>
            </g>
        </g>
    </g>
</svg>
