<svg xmlns="http://www.w3.org/2000/svg" width="40" height="40" viewBox="0 0 40 40">
    <g fill="none" fill-rule="evenodd">
        <g>
            <g>
                <g>
                    <g>
                        <g>
                            <path d="M0 0H40V40H0z" transform="translate(-765 -1958) translate(0 1580) translate(151 64) translate(584 151) translate(30 163)"/>
                            <path fill="#C61519" fill-rule="nonzero" d="M21.895 1.066c1.421-1.421 3.733-1.421 5.154 0l11.855 11.856c1.421 1.42 1.421 3.732 0 5.153l-20.829 20.83c-1.42 1.42-3.733 1.42-5.154 0L1.066 27.049c-1.421-1.421-1.421-3.733 0-5.154zM6.22 36.072c.654 0 1.184.53 1.184 1.184 0 .654-.53 1.184-1.184 1.184H1.184C.53 38.44 0 37.91 0 37.256c0-.654.53-1.184 1.184-1.184zm8.887-10.752H2.776c.004.003.004.008.007.011L14.64 37.187c.136.135.298.22.468.279V25.32zm10.213-7.784v4.825c0 .79-.308 1.534-.867 2.093-.558.558-1.301.866-2.092.866h-4.825v10.688l18.472-18.472H25.32zm-2.43-14.03L3.507 22.89h18.855c.283 0 .53-.246.53-.53V3.507zm2.43-.73v12.33l12.146.001c-.058-.17-.144-.332-.28-.468L25.332 2.784c-.003-.004-.008-.005-.011-.008zm-19.1 9.165c.654 0 1.184.53 1.184 1.184 0 .654-.53 1.184-1.184 1.184H1.184C.53 14.309 0 13.779 0 13.125c0-.654.53-1.184 1.184-1.184zm2.765-4.509c.654 0 1.183.53 1.183 1.184 0 .654-.53 1.184-1.183 1.184H1.184C.53 9.8 0 9.27 0 8.616c0-.654.53-1.184 1.184-1.184zm4.64-4.65c.653 0 1.183.53 1.183 1.184 0 .654-.53 1.184-1.184 1.184H1.184C.53 5.15 0 4.62 0 3.966c0-.653.53-1.183 1.184-1.183z" transform="translate(-765 -1958) translate(0 1580) translate(151 64) translate(584 151) translate(30 163)"/>
                        </g>
                    </g>
                </g>
            </g>
        </g>
    </g>
</svg>
